#define bea044977f4548b199dfbdba2563c8c2eRK1QR3GGwXJWaHX_width 61
#define bea044977f4548b199dfbdba2563c8c2eRK1QR3GGwXJWaHX_height 61
static char bea044977f4548b199dfbdba2563c8c2eRK1QR3GGwXJWaHX_bits[] = {
  0x00, 0x00, 0x00, 0x04, 0x00, 0x00, 0x00, 0x00, 0x00, 0x00, 0x00, 0x00, 
  0x10, 0x00, 0x00, 0x00, 0x00, 0x00, 0x10, 0xE0, 0x01, 0x00, 0x00, 0x00, 
  0x00, 0x00, 0x80, 0xFF, 0x5F, 0x00, 0x00, 0x00, 0x00, 0x00, 0xF0, 0xFF, 
  0xFF, 0x11, 0x00, 0x00, 0x00, 0x00, 0xFC, 0xFF, 0xFF, 0x07, 0x00, 0x00, 
  0x00, 0x00, 0xFF, 0xD7, 0xF6, 0x1F, 0x00, 0x00, 0x00, 0xC0, 0xFF, 0xB7, 
  0xFB, 0x7F, 0x00, 0x00, 0x00, 0xE0, 0x77, 0x6E, 0x73, 0xFF, 0x00, 0x00, 
  0x00, 0xF0, 0xCF, 0xDA, 0xDE, 0xFC, 0x01, 0x00, 0x00, 0xF8, 0x9B, 0x9D, 
  0x46, 0xF9, 0x03, 0x00, 0x00, 0x7D, 0xED, 0x06, 0xBD, 0xEE, 0x07, 0x00, 
  0x80, 0xBE, 0x5A, 0x05, 0x50, 0xDD, 0x0F, 0x00, 0x00, 0xFF, 0xA5, 0x01, 
  0xA8, 0xA6, 0x1F, 0x00, 0x00, 0x2F, 0x1A, 0x10, 0x60, 0x51, 0x3F, 0x00, 
  0x80, 0x9F, 0x25, 0x00, 0x80, 0xAA, 0x3E, 0x00, 0xC0, 0xAB, 0x0A, 0x00, 
  0x00, 0x54, 0x7A, 0x00, 0xD0, 0x53, 0x01, 0x00, 0x00, 0xA8, 0x7D, 0x00, 
  0xE0, 0xAB, 0x00, 0x00, 0x00, 0x80, 0xFA, 0x00, 0xE0, 0x15, 0x00, 0x00, 
  0x00, 0x40, 0xF9, 0x00, 0xF0, 0x14, 0x00, 0x00, 0x00, 0x00, 0xF2, 0x01, 
  0xF0, 0x05, 0x00, 0x00, 0x00, 0x00, 0xE8, 0x01, 0x70, 0x16, 0x00, 0x00, 
  0x04, 0x80, 0xD7, 0x01, 0xF8, 0x04, 0x00, 0x44, 0x00, 0x00, 0xE8, 0x03, 
  0x78, 0x0D, 0x80, 0x22, 0x00, 0x00, 0xCA, 0x03, 0xB8, 0x20, 0x28, 0x96, 
  0xA9, 0xA2, 0xD8, 0x03, 0x78, 0x2A, 0x04, 0x80, 0x22, 0x02, 0x93, 0x07, 
  0x3C, 0x12, 0x08, 0x08, 0x00, 0x80, 0xC8, 0x13, 0x7C, 0x51, 0x09, 0x00, 
  0x00, 0x04, 0xB9, 0x07, 0x38, 0x08, 0x04, 0x00, 0x00, 0x86, 0x84, 0x03, 
  0x7A, 0x26, 0x00, 0x00, 0x00, 0x80, 0xC6, 0x03, 0xBC, 0x09, 0x08, 0x00, 
  0x00, 0x02, 0x90, 0x0F, 0x7C, 0x41, 0x08, 0x00, 0x00, 0x00, 0x8C, 0x07, 
  0x38, 0x14, 0x00, 0x00, 0x00, 0x00, 0xE2, 0x03, 0x3A, 0x01, 0x08, 0x00, 
  0x00, 0x84, 0xA0, 0x03, 0x78, 0x14, 0x04, 0x20, 0x00, 0x00, 0x89, 0x03, 
  0x78, 0x44, 0x00, 0x40, 0x00, 0x00, 0xC2, 0x03, 0x78, 0x01, 0x08, 0x10, 
  0x00, 0x02, 0xC0, 0x03, 0x70, 0x00, 0x04, 0x00, 0x00, 0x04, 0xD1, 0x01, 
  0xF0, 0x04, 0x00, 0xA0, 0x00, 0x00, 0xE0, 0x05, 0xF0, 0x52, 0x00, 0x00, 
  0x00, 0x80, 0xF1, 0x01, 0xE4, 0x00, 0x00, 0x00, 0x00, 0x00, 0xE2, 0x00, 
  0xE0, 0x01, 0x00, 0x00, 0x00, 0x00, 0xF0, 0x00, 0xC0, 0x3F, 0x00, 0x04, 
  0x04, 0x80, 0x7E, 0x00, 0xC0, 0x0F, 0x00, 0x00, 0x00, 0x00, 0x7D, 0x00, 
  0x90, 0x0F, 0x00, 0x00, 0x00, 0x00, 0x3E, 0x00, 0x00, 0x1F, 0x00, 0x10, 
  0x00, 0x00, 0x3F, 0x00, 0x00, 0x1F, 0x41, 0x00, 0x10, 0x04, 0x0F, 0x00, 
  0x00, 0x3E, 0x00, 0x00, 0x00, 0x00, 0x0F, 0x00, 0x00, 0x7C, 0x00, 0x00, 
  0x00, 0xC0, 0x07, 0x00, 0x00, 0xF8, 0x96, 0x46, 0x95, 0xEE, 0x03, 0x00, 
  0x00, 0xF0, 0x01, 0x00, 0x00, 0xF0, 0x01, 0x00, 0x00, 0xC0, 0x07, 0x00, 
  0x00, 0xFC, 0x00, 0x00, 0x00, 0xC0, 0x5F, 0xBB, 0x6D, 0x3F, 0x00, 0x00, 
  0x00, 0x00, 0xFF, 0x00, 0xE0, 0x1F, 0x00, 0x00, 0x00, 0x20, 0xFC, 0xFF, 
  0xFF, 0x07, 0x00, 0x00, 0x00, 0x00, 0xF0, 0xFF, 0xFF, 0x01, 0x00, 0x00, 
  0x00, 0x00, 0x82, 0xFF, 0x3F, 0x04, 0x00, 0x00, 0x00, 0x00, 0x00, 0x58, 
  0x01, 0x00, 0x00, 0x00, 0x00, 0x00, 0x00, 0x00, 0x08, 0x00, 0x00, 0x00, 
  0x00, 0x00, 0x00, 0x40, 0x00, 0x00, 0x00, 0x00, };
